# xmcd CD database file
#
# Track frame offsets:
#	150
#	25545
#	51132
#	71987
#	87747
#	103080
#	136780
#	153387
#	167810
#	185400
#
# Disc length: 2663 seconds
#
# Revision: 0
# Processed by: cddbd v1.5.1PL0 Copyright (c) Steve Scherf et al.
# Submitted via: CDex 1.51
#
DISCID=850a650a
DTITLE=Trio Bjorns Thoroddsen and Egill Olafsson - Híf opp
DYEAR=1996
DGENRE=Jazz
TTITLE0=Improntu I (Improntu I)
TTITLE1=Híf opp (Giv' us a hitch)
TTITLE2=Rólegan æsing (Hold your horses)
TTITLE3=Stál (Steel)
TTITLE4=Krotað í sand (Scribbled in sand)
TTITLE5=Improntu II (Improntu II)
TTITLE6=Gegnum holt og hæðir (I can see through mountains)
TTITLE7=Nútíminn (Modern time)
TTITLE8=Tíminn hlær (Time laughs)
TTITLE9=Bara nóttin kæmi (If only the night would come)
EXTD=YEAR: 1996
EXTT0=
EXTT1=
EXTT2=
EXTT3=
EXTT4=
EXTT5=
EXTT6=
EXTT7=
EXTT8=
EXTT9=
PLAYORDER=
